<?xml version="1.0" standalone="no"?>
<svg viewBox="0 0 9045 4181" version="1.1" xmlns="http://www.w3.org/2000/svg">
<style>
 line {stroke: black; stroke-width: 0.2px;}
 .mainchain {stroke-width: 0.4px;}
 .sidechain {stroke-width: 0.2px;}

 /* We'll emulate SSE widths by duplicating strokes with thicker widths */
 .beta {stroke-width: 0.55px;}
 .helix {stroke-width: 0.42px;}
 .loop {stroke-width: 0.22px;}

 circle {stroke: black; stroke-width: 0.2px;}
 .a {fill: red;}
 .b {fill: skyblue;}
 .w {fill: green;}
 .g {fill: pink;}
 .n {fill: white;}
 .s {fill: yellow;}
 .p {fill: purple;}
 .aa {font-family: sans-serif; font-size: 1.76px; text-anchor: middle;}
 .resi {font-family: sans-serif; font-size: 1.50px; text-anchor: middle;}
</style>
<g transform="scale(10.0) translate(471.331288, 230.237456)">
 <line x1="-445.390545" y1="161.004953" x2="-423.527767" y2="161.004953" class="loop" />
 <line x1="-423.527767" y1="161.004953" x2="-401.664989" y2="161.004953" class="loop" />
 <line x1="-401.664989" y1="161.004953" x2="-379.802211" y2="161.004953" class="loop" />
 <line x1="-379.802211" y1="161.004953" x2="-357.939433" y2="161.004953" class="loop" />
 <line x1="-357.939433" y1="161.004953" x2="-336.076655" y2="161.004953" class="loop" />
 <line x1="-336.076655" y1="161.004953" x2="-314.213877" y2="161.004953" class="beta" />
 <line x1="-314.213877" y1="161.004953" x2="-292.351099" y2="161.004953" class="beta" />
 <line x1="-292.351099" y1="161.004953" x2="-270.488322" y2="161.004953" class="beta" />
 <line x1="-270.488322" y1="161.004953" x2="-248.625544" y2="161.004953" class="beta" />
 <line x1="-248.625544" y1="161.004953" x2="-226.762766" y2="161.004953" class="beta" />
 <line x1="-226.762766" y1="161.004953" x2="-204.899988" y2="161.004953" class="beta" />
 <line x1="-204.899988" y1="161.004953" x2="-183.037210" y2="161.004953" class="beta" />
 <line x1="-183.037210" y1="161.004953" x2="-161.174432" y2="161.004953" class="loop" />
 <line x1="-161.174432" y1="161.004953" x2="-139.311654" y2="161.004953" class="loop" />
 <line x1="-139.311654" y1="161.004953" x2="-117.448876" y2="161.004953" class="loop" />
 <line x1="-117.448876" y1="161.004953" x2="-95.586099" y2="161.004953" class="helix" />
 <line x1="-95.586099" y1="161.004953" x2="-73.723321" y2="161.004953" class="helix" />
 <line x1="-73.723321" y1="161.004953" x2="-51.860543" y2="161.004953" class="helix" />
 <line x1="-51.860543" y1="161.004953" x2="-29.997765" y2="161.004953" class="helix" />
 <line x1="-29.997765" y1="161.004953" x2="-8.134987" y2="161.004953" class="helix" />
 <line x1="-8.134987" y1="161.004953" x2="13.727791" y2="161.004953" class="loop" />
 <line x1="13.727791" y1="161.004953" x2="35.590569" y2="161.004953" class="loop" />
 <line x1="35.590569" y1="161.004953" x2="57.453347" y2="161.004953" class="loop" />
 <line x1="57.453347" y1="161.004953" x2="79.316124" y2="161.004953" class="beta" />
 <line x1="79.316124" y1="161.004953" x2="101.178902" y2="161.004953" class="beta" />
 <line x1="101.178902" y1="161.004953" x2="123.041680" y2="161.004953" class="beta" />
 <line x1="123.041680" y1="161.004953" x2="144.904458" y2="161.004953" class="beta" />
 <line x1="144.904458" y1="161.004953" x2="166.767236" y2="161.004953" class="beta" />
 <line x1="166.767236" y1="161.004953" x2="188.630014" y2="161.004953" class="beta" />
 <line x1="188.630014" y1="161.004953" x2="210.492792" y2="161.004953" class="beta" />
 <line x1="210.492792" y1="161.004953" x2="232.355570" y2="161.004953" class="beta" />
 <line x1="232.355570" y1="161.004953" x2="254.218347" y2="161.004953" class="beta" />
 <line x1="254.218347" y1="161.004953" x2="276.081125" y2="161.004953" class="loop" />
 <line x1="276.081125" y1="161.004953" x2="297.943903" y2="161.004953" class="loop" />
 <line x1="297.943903" y1="161.004953" x2="319.806681" y2="161.004953" class="loop" />
 <line x1="319.806681" y1="161.004953" x2="341.669459" y2="161.004953" class="loop" />
 <line x1="341.669459" y1="161.004953" x2="363.532237" y2="161.004953" class="loop" />
 <line x1="363.532237" y1="161.004953" x2="385.395015" y2="161.004953" class="loop" />
 <line x1="385.395015" y1="161.004953" x2="407.257793" y2="161.004953" class="loop" />
 <line x1="407.257793" y1="161.004953" x2="407.257793" y2="88.129027" class="loop" />
 <line x1="407.257793" y1="88.129027" x2="385.395015" y2="88.129027" class="beta" />
 <line x1="385.395015" y1="88.129027" x2="363.532237" y2="88.129027" class="beta" />
 <line x1="363.532237" y1="88.129027" x2="341.669459" y2="88.129027" class="beta" />
 <line x1="341.669459" y1="88.129027" x2="319.806681" y2="88.129027" class="beta" />
 <line x1="319.806681" y1="88.129027" x2="297.943903" y2="88.129027" class="beta" />
 <line x1="297.943903" y1="88.129027" x2="276.081125" y2="88.129027" class="beta" />
 <line x1="276.081125" y1="88.129027" x2="254.218347" y2="88.129027" class="beta" />
 <line x1="254.218347" y1="88.129027" x2="232.355570" y2="88.129027" class="loop" />
 <line x1="232.355570" y1="88.129027" x2="210.492792" y2="88.129027" class="loop" />
 <line x1="210.492792" y1="88.129027" x2="188.630014" y2="88.129027" class="loop" />
 <line x1="188.630014" y1="88.129027" x2="166.767236" y2="88.129027" class="loop" />
 <line x1="166.767236" y1="88.129027" x2="144.904458" y2="88.129027" class="loop" />
 <line x1="144.904458" y1="88.129027" x2="123.041680" y2="88.129027" class="loop" />
 <line x1="123.041680" y1="88.129027" x2="101.178902" y2="88.129027" class="loop" />
 <line x1="101.178902" y1="88.129027" x2="79.316124" y2="88.129027" class="loop" />
 <line x1="79.316124" y1="88.129027" x2="57.453347" y2="88.129027" class="loop" />
 <line x1="57.453347" y1="88.129027" x2="35.590569" y2="88.129027" class="loop" />
 <line x1="35.590569" y1="88.129027" x2="13.727791" y2="88.129027" class="loop" />
 <line x1="13.727791" y1="88.129027" x2="-8.134987" y2="88.129027" class="loop" />
 <line x1="-8.134987" y1="88.129027" x2="-29.997765" y2="88.129027" class="loop" />
 <line x1="-29.997765" y1="88.129027" x2="-51.860543" y2="88.129027" class="loop" />
 <line x1="-51.860543" y1="88.129027" x2="-73.723321" y2="88.129027" class="loop" />
 <line x1="-73.723321" y1="88.129027" x2="-95.586099" y2="88.129027" class="loop" />
 <line x1="-95.586099" y1="88.129027" x2="-117.448876" y2="88.129027" class="loop" />
 <line x1="-117.448876" y1="88.129027" x2="-139.311654" y2="88.129027" class="loop" />
 <line x1="-139.311654" y1="88.129027" x2="-161.174432" y2="88.129027" class="loop" />
 <line x1="-161.174432" y1="88.129027" x2="-183.037210" y2="88.129027" class="loop" />
 <line x1="-183.037210" y1="88.129027" x2="-204.899988" y2="88.129027" class="beta" />
 <line x1="-204.899988" y1="88.129027" x2="-226.762766" y2="88.129027" class="beta" />
 <line x1="-226.762766" y1="88.129027" x2="-248.625544" y2="88.129027" class="beta" />
 <line x1="-248.625544" y1="88.129027" x2="-270.488322" y2="88.129027" class="beta" />
 <line x1="-270.488322" y1="88.129027" x2="-292.351099" y2="88.129027" class="beta" />
 <line x1="-292.351099" y1="88.129027" x2="-314.213877" y2="88.129027" class="beta" />
 <line x1="-314.213877" y1="88.129027" x2="-336.076655" y2="88.129027" class="beta" />
 <line x1="-336.076655" y1="88.129027" x2="-357.939433" y2="88.129027" class="beta" />
 <line x1="-357.939433" y1="88.129027" x2="-379.802211" y2="88.129027" class="beta" />
 <line x1="-379.802211" y1="88.129027" x2="-401.664989" y2="88.129027" class="beta" />
 <line x1="-401.664989" y1="88.129027" x2="-423.527767" y2="88.129027" class="beta" />
 <line x1="-423.527767" y1="88.129027" x2="-445.390545" y2="88.129027" class="helix" />
 <line x1="-445.390545" y1="88.129027" x2="-445.390545" y2="15.253101" class="helix" />
 <line x1="-445.390545" y1="15.253101" x2="-423.527767" y2="15.253101" class="helix" />
 <line x1="-423.527767" y1="15.253101" x2="-401.664989" y2="15.253101" class="helix" />
 <line x1="-401.664989" y1="15.253101" x2="-379.802211" y2="15.253101" class="helix" />
 <line x1="-379.802211" y1="15.253101" x2="-357.939433" y2="15.253101" class="helix" />
 <line x1="-357.939433" y1="15.253101" x2="-336.076655" y2="15.253101" class="beta" />
 <line x1="-336.076655" y1="15.253101" x2="-314.213877" y2="15.253101" class="beta" />
 <line x1="-314.213877" y1="15.253101" x2="-292.351099" y2="15.253101" class="beta" />
 <line x1="-292.351099" y1="15.253101" x2="-270.488322" y2="15.253101" class="beta" />
 <line x1="-270.488322" y1="15.253101" x2="-248.625544" y2="15.253101" class="beta" />
 <line x1="-248.625544" y1="15.253101" x2="-226.762766" y2="15.253101" class="beta" />
 <line x1="-226.762766" y1="15.253101" x2="-204.899988" y2="15.253101" class="beta" />
 <line x1="-204.899988" y1="15.253101" x2="-183.037210" y2="15.253101" class="beta" />
 <line x1="-183.037210" y1="15.253101" x2="-161.174432" y2="15.253101" class="beta" />
 <line x1="-161.174432" y1="15.253101" x2="-139.311654" y2="15.253101" class="loop" />
 <line x1="-139.311654" y1="15.253101" x2="-117.448876" y2="15.253101" class="loop" />
 <line x1="-117.448876" y1="15.253101" x2="-95.586099" y2="15.253101" class="loop" />
 <line x1="-95.586099" y1="15.253101" x2="-73.723321" y2="15.253101" class="loop" />
 <line x1="-73.723321" y1="15.253101" x2="-51.860543" y2="15.253101" class="loop" />
 <line x1="-51.860543" y1="15.253101" x2="-29.997765" y2="15.253101" class="loop" />
 <line x1="-29.997765" y1="15.253101" x2="-8.134987" y2="15.253101" class="beta" />
 <line x1="-8.134987" y1="15.253101" x2="13.727791" y2="15.253101" class="beta" />
 <line x1="13.727791" y1="15.253101" x2="35.590569" y2="15.253101" class="beta" />
 <line x1="35.590569" y1="15.253101" x2="57.453347" y2="15.253101" class="beta" />
 <line x1="57.453347" y1="15.253101" x2="79.316124" y2="15.253101" class="beta" />
 <line x1="79.316124" y1="15.253101" x2="101.178902" y2="15.253101" class="beta" />
 <line x1="101.178902" y1="15.253101" x2="123.041680" y2="15.253101" class="loop" />
 <line x1="123.041680" y1="15.253101" x2="144.904458" y2="15.253101" class="loop" />
 <line x1="144.904458" y1="15.253101" x2="166.767236" y2="15.253101" class="loop" />
 <line x1="166.767236" y1="15.253101" x2="188.630014" y2="15.253101" class="loop" />
 <line x1="188.630014" y1="15.253101" x2="210.492792" y2="15.253101" class="loop" />
 <line x1="210.492792" y1="15.253101" x2="232.355570" y2="15.253101" class="beta" />
 <line x1="232.355570" y1="15.253101" x2="254.218347" y2="15.253101" class="beta" />
 <line x1="254.218347" y1="15.253101" x2="276.081125" y2="15.253101" class="beta" />
 <line x1="276.081125" y1="15.253101" x2="297.943903" y2="15.253101" class="beta" />
 <line x1="297.943903" y1="15.253101" x2="319.806681" y2="15.253101" class="beta" />
 <line x1="319.806681" y1="15.253101" x2="341.669459" y2="15.253101" class="beta" />
 <line x1="341.669459" y1="15.253101" x2="363.532237" y2="15.253101" class="beta" />
 <line x1="363.532237" y1="15.253101" x2="385.395015" y2="15.253101" class="beta" />
 <line x1="385.395015" y1="15.253101" x2="407.257793" y2="15.253101" class="beta" />
 <line x1="407.257793" y1="15.253101" x2="407.257793" y2="-57.622825" class="beta" />
 <line x1="407.257793" y1="-57.622825" x2="385.395015" y2="-57.622825" class="loop" />
 <line x1="385.395015" y1="-57.622825" x2="363.532237" y2="-57.622825" class="loop" />
 <line x1="363.532237" y1="-57.622825" x2="341.669459" y2="-57.622825" class="loop" />
 <line x1="341.669459" y1="-57.622825" x2="319.806681" y2="-57.622825" class="loop" />
 <line x1="319.806681" y1="-57.622825" x2="297.943903" y2="-57.622825" class="loop" />
 <line x1="297.943903" y1="-57.622825" x2="276.081125" y2="-57.622825" class="loop" />
 <line x1="276.081125" y1="-57.622825" x2="254.218347" y2="-57.622825" class="loop" />
 <line x1="254.218347" y1="-57.622825" x2="232.355570" y2="-57.622825" class="loop" />
 <line x1="232.355570" y1="-57.622825" x2="210.492792" y2="-57.622825" class="loop" />
 <line x1="210.492792" y1="-57.622825" x2="188.630014" y2="-57.622825" class="loop" />
 <line x1="188.630014" y1="-57.622825" x2="166.767236" y2="-57.622825" class="beta" />
 <line x1="166.767236" y1="-57.622825" x2="144.904458" y2="-57.622825" class="beta" />
 <line x1="144.904458" y1="-57.622825" x2="123.041680" y2="-57.622825" class="beta" />
 <line x1="123.041680" y1="-57.622825" x2="101.178902" y2="-57.622825" class="beta" />
 <line x1="101.178902" y1="-57.622825" x2="79.316124" y2="-57.622825" class="beta" />
 <line x1="79.316124" y1="-57.622825" x2="57.453347" y2="-57.622825" class="beta" />
 <line x1="57.453347" y1="-57.622825" x2="35.590569" y2="-57.622825" class="beta" />
 <line x1="35.590569" y1="-57.622825" x2="13.727791" y2="-57.622825" class="beta" />
 <line x1="13.727791" y1="-57.622825" x2="-8.134987" y2="-57.622825" class="loop" />
 <line x1="-8.134987" y1="-57.622825" x2="-29.997765" y2="-57.622825" class="loop" />
 <line x1="-29.997765" y1="-57.622825" x2="-51.860543" y2="-57.622825" class="loop" />
 <line x1="-51.860543" y1="-57.622825" x2="-73.723321" y2="-57.622825" class="loop" />
 <line x1="-73.723321" y1="-57.622825" x2="-95.586099" y2="-57.622825" class="loop" />
 <line x1="-95.586099" y1="-57.622825" x2="-117.448876" y2="-57.622825" class="loop" />
 <line x1="-117.448876" y1="-57.622825" x2="-139.311654" y2="-57.622825" class="loop" />
 <line x1="-139.311654" y1="-57.622825" x2="-161.174432" y2="-57.622825" class="loop" />
 <line x1="-161.174432" y1="-57.622825" x2="-183.037210" y2="-57.622825" class="loop" />
 <line x1="-183.037210" y1="-57.622825" x2="-204.899988" y2="-57.622825" class="loop" />
 <line x1="-204.899988" y1="-57.622825" x2="-226.762766" y2="-57.622825" class="loop" />
 <line x1="-226.762766" y1="-57.622825" x2="-248.625544" y2="-57.622825" class="loop" />
 <line x1="-248.625544" y1="-57.622825" x2="-270.488322" y2="-57.622825" class="loop" />
 <line x1="-270.488322" y1="-57.622825" x2="-292.351099" y2="-57.622825" class="loop" />
 <line x1="-292.351099" y1="-57.622825" x2="-314.213877" y2="-57.622825" class="loop" />
 <line x1="-314.213877" y1="-57.622825" x2="-336.076655" y2="-57.622825" class="loop" />
 <line x1="-336.076655" y1="-57.622825" x2="-357.939433" y2="-57.622825" class="loop" />
 <line x1="-357.939433" y1="-57.622825" x2="-379.802211" y2="-57.622825" class="loop" />
 <line x1="-379.802211" y1="-57.622825" x2="-401.664989" y2="-57.622825" class="loop" />
 <line x1="-401.664989" y1="-57.622825" x2="-423.527767" y2="-57.622825" class="loop" />
 <line x1="-423.527767" y1="-57.622825" x2="-445.390545" y2="-57.622825" class="loop" />
 <line x1="-445.390545" y1="-57.622825" x2="-445.390545" y2="-130.498752" class="loop" />
 <line x1="-445.390545" y1="-130.498752" x2="-423.527767" y2="-130.498752" class="loop" />
 <line x1="-423.527767" y1="-130.498752" x2="-401.664989" y2="-130.498752" class="loop" />
 <line x1="-401.664989" y1="-130.498752" x2="-379.802211" y2="-130.498752" class="loop" />
 <line x1="-379.802211" y1="-130.498752" x2="-357.939433" y2="-130.498752" class="loop" />
 <line x1="-357.939433" y1="-130.498752" x2="-336.076655" y2="-130.498752" class="loop" />
 <line x1="-336.076655" y1="-130.498752" x2="-314.213877" y2="-130.498752" class="loop" />
 <line x1="-314.213877" y1="-130.498752" x2="-292.351099" y2="-130.498752" class="loop" />
 <line x1="-292.351099" y1="-130.498752" x2="-270.488322" y2="-130.498752" class="loop" />
 <line x1="-270.488322" y1="-130.498752" x2="-248.625544" y2="-130.498752" class="loop" />
 <line x1="-248.625544" y1="-130.498752" x2="-226.762766" y2="-130.498752" class="loop" />
 <line x1="-226.762766" y1="-130.498752" x2="-204.899988" y2="-130.498752" class="loop" />
 <line x1="-204.899988" y1="-130.498752" x2="-183.037210" y2="-130.498752" class="loop" />
 <line x1="-183.037210" y1="-130.498752" x2="-161.174432" y2="-130.498752" class="loop" />
 <line x1="-161.174432" y1="-130.498752" x2="-139.311654" y2="-130.498752" class="loop" />
 <line x1="-139.311654" y1="-130.498752" x2="-117.448876" y2="-130.498752" class="beta" />
 <line x1="-117.448876" y1="-130.498752" x2="-95.586099" y2="-130.498752" class="beta" />
 <line x1="-95.586099" y1="-130.498752" x2="-73.723321" y2="-130.498752" class="beta" />
 <line x1="-73.723321" y1="-130.498752" x2="-51.860543" y2="-130.498752" class="beta" />
 <line x1="-51.860543" y1="-130.498752" x2="-29.997765" y2="-130.498752" class="beta" />
 <line x1="-29.997765" y1="-130.498752" x2="-8.134987" y2="-130.498752" class="beta" />
 <line x1="-8.134987" y1="-130.498752" x2="13.727791" y2="-130.498752" class="loop" />
 <line x1="13.727791" y1="-130.498752" x2="35.590569" y2="-130.498752" class="loop" />
 <line x1="35.590569" y1="-130.498752" x2="57.453347" y2="-130.498752" class="helix" />
 <line x1="57.453347" y1="-130.498752" x2="79.316124" y2="-130.498752" class="helix" />
 <line x1="79.316124" y1="-130.498752" x2="101.178902" y2="-130.498752" class="helix" />
 <line x1="101.178902" y1="-130.498752" x2="123.041680" y2="-130.498752" class="helix" />
 <line x1="123.041680" y1="-130.498752" x2="144.904458" y2="-130.498752" class="helix" />
 <line x1="144.904458" y1="-130.498752" x2="166.767236" y2="-130.498752" class="helix" />
 <line x1="166.767236" y1="-130.498752" x2="188.630014" y2="-130.498752" class="beta" />
 <line x1="188.630014" y1="-130.498752" x2="210.492792" y2="-130.498752" class="beta" />
 <line x1="210.492792" y1="-130.498752" x2="232.355570" y2="-130.498752" class="beta" />
 <line x1="232.355570" y1="-130.498752" x2="254.218347" y2="-130.498752" class="beta" />
 <line x1="254.218347" y1="-130.498752" x2="276.081125" y2="-130.498752" class="beta" />
 <line x1="276.081125" y1="-130.498752" x2="297.943903" y2="-130.498752" class="beta" />
 <line x1="297.943903" y1="-130.498752" x2="319.806681" y2="-130.498752" class="beta" />
 <line x1="319.806681" y1="-130.498752" x2="341.669459" y2="-130.498752" class="beta" />
 <line x1="341.669459" y1="-130.498752" x2="363.532237" y2="-130.498752" class="beta" />
 <line x1="363.532237" y1="-130.498752" x2="385.395015" y2="-130.498752" class="loop" />
 <line x1="385.395015" y1="-130.498752" x2="407.257793" y2="-130.498752" class="loop" />
 <line x1="407.257793" y1="-130.498752" x2="407.257793" y2="-203.374678" class="loop" />
 <line x1="407.257793" y1="-203.374678" x2="385.395015" y2="-203.374678" class="loop" />
 <line x1="385.395015" y1="-203.374678" x2="363.532237" y2="-203.374678" class="loop" />
 <line x1="363.532237" y1="-203.374678" x2="341.669459" y2="-203.374678" class="loop" />
 <line x1="341.669459" y1="-203.374678" x2="319.806681" y2="-203.374678" class="loop" />
 <line x1="319.806681" y1="-203.374678" x2="297.943903" y2="-203.374678" class="loop" />
 <line x1="297.943903" y1="-203.374678" x2="276.081125" y2="-203.374678" class="beta" />
 <line x1="276.081125" y1="-203.374678" x2="254.218347" y2="-203.374678" class="beta" />
 <line x1="254.218347" y1="-203.374678" x2="232.355570" y2="-203.374678" class="beta" />
 <line x1="232.355570" y1="-203.374678" x2="210.492792" y2="-203.374678" class="beta" />
 <line x1="210.492792" y1="-203.374678" x2="188.630014" y2="-203.374678" class="beta" />
 <line x1="188.630014" y1="-203.374678" x2="166.767236" y2="-203.374678" class="beta" />
 <line x1="166.767236" y1="-203.374678" x2="144.904458" y2="-203.374678" class="loop" />
 <line x1="144.904458" y1="-203.374678" x2="123.041680" y2="-203.374678" class="loop" />
 <line x1="123.041680" y1="-203.374678" x2="101.178902" y2="-203.374678" class="loop" />
 <line x1="-445.390545" y1="161.004953" x2="-445.390545" y2="182.867731" class="sidechain" />
 <circle cx="-445.390545" cy="182.867731" r="10.000000" class="p" />
 <text x="-445.390545" y="187.867731" class="aa">P</text>
 <text x="-445.390545" y="194.067731" class="resi">232</text>

 <line x1="-423.527767" y1="161.004953" x2="-423.527767" y2="139.142175" class="sidechain" />
 <circle cx="-423.527767" cy="139.142175" r="10.000000" class="a" />
 <text x="-423.527767" y="144.142175" class="aa">E</text>

 <line x1="-401.664989" y1="161.004953" x2="-401.664989" y2="182.867731" class="sidechain" />
 <circle cx="-401.664989" cy="182.867731" r="10.000000" class="n" />
 <text x="-401.664989" y="187.867731" class="aa">L</text>

 <line x1="-379.802211" y1="161.004953" x2="-379.802211" y2="139.142175" class="sidechain" />
 <circle cx="-379.802211" cy="139.142175" r="10.000000" class="n" />
 <text x="-379.802211" y="144.142175" class="aa">L</text>

 <line x1="-357.939433" y1="161.004953" x2="-357.939433" y2="174.122620" class="sidechain" />
 <circle cx="-357.939433" cy="174.122620" r="10.000000" class="g" />
 <text x="-357.939433" y="179.122620" class="aa">G</text>

 <line x1="-336.076655" y1="161.004953" x2="-336.076655" y2="147.887287" class="sidechain" />
 <circle cx="-336.076655" cy="147.887287" r="10.000000" class="g" />
 <text x="-336.076655" y="152.887287" class="aa">G</text>

 <line x1="-314.213877" y1="161.004953" x2="-314.213877" y2="182.867731" class="sidechain" />
 <circle cx="-314.213877" cy="182.867731" r="10.000000" class="p" />
 <text x="-314.213877" y="187.867731" class="aa">P</text>

 <line x1="-292.351099" y1="161.004953" x2="-292.351099" y2="139.142175" class="sidechain" />
 <circle cx="-292.351099" cy="139.142175" r="10.000000" class="w" />
 <text x="-292.351099" y="144.142175" class="aa">S</text>
 <text x="-292.351099" y="150.342175" class="resi">239</text>

 <line x1="-270.488322" y1="161.004953" x2="-270.488322" y2="182.867731" class="sidechain" />
 <circle cx="-270.488322" cy="182.867731" r="10.000000" class="n" />
 <text x="-270.488322" y="187.867731" class="aa">V</text>

 <line x1="-248.625544" y1="161.004953" x2="-248.625544" y2="139.142175" class="sidechain" />
 <circle cx="-248.625544" cy="139.142175" r="10.000000" class="n" />
 <text x="-248.625544" y="144.142175" class="aa">F</text>

 <line x1="-226.762766" y1="161.004953" x2="-226.762766" y2="182.867731" class="sidechain" />
 <circle cx="-226.762766" cy="182.867731" r="10.000000" class="n" />
 <text x="-226.762766" y="187.867731" class="aa">L</text>

 <line x1="-204.899988" y1="161.004953" x2="-204.899988" y2="139.142175" class="sidechain" />
 <circle cx="-204.899988" cy="139.142175" r="10.000000" class="n" />
 <text x="-204.899988" y="144.142175" class="aa">F</text>

 <line x1="-183.037210" y1="161.004953" x2="-183.037210" y2="182.867731" class="sidechain" />
 <circle cx="-183.037210" cy="182.867731" r="10.000000" class="p" />
 <text x="-183.037210" y="187.867731" class="aa">P</text>

 <line x1="-161.174432" y1="161.004953" x2="-161.174432" y2="139.142175" class="sidechain" />
 <circle cx="-161.174432" cy="139.142175" r="10.000000" class="p" />
 <text x="-161.174432" y="144.142175" class="aa">P</text>

 <line x1="-139.311654" y1="161.004953" x2="-139.311654" y2="182.867731" class="sidechain" />
 <circle cx="-139.311654" cy="182.867731" r="10.000000" class="b" />
 <text x="-139.311654" y="187.867731" class="aa">K</text>
 <text x="-139.311654" y="194.067731" class="resi">246</text>

 <line x1="-117.448876" y1="161.004953" x2="-117.448876" y2="139.142175" class="sidechain" />
 <circle cx="-117.448876" cy="139.142175" r="10.000000" class="p" />
 <text x="-117.448876" y="144.142175" class="aa">P</text>

 <line x1="-95.586099" y1="161.004953" x2="-95.586099" y2="182.867731" class="sidechain" />
 <circle cx="-95.586099" cy="182.867731" r="10.000000" class="b" />
 <text x="-95.586099" y="187.867731" class="aa">K</text>

 <line x1="-73.723321" y1="161.004953" x2="-73.723321" y2="139.142175" class="sidechain" />
 <circle cx="-73.723321" cy="139.142175" r="10.000000" class="a" />
 <text x="-73.723321" y="144.142175" class="aa">D</text>

 <line x1="-51.860543" y1="161.004953" x2="-51.860543" y2="182.867731" class="sidechain" />
 <circle cx="-51.860543" cy="182.867731" r="10.000000" class="w" />
 <text x="-51.860543" y="187.867731" class="aa">T</text>

 <line x1="-29.997765" y1="161.004953" x2="-29.997765" y2="139.142175" class="sidechain" />
 <circle cx="-29.997765" cy="139.142175" r="10.000000" class="n" />
 <text x="-29.997765" y="144.142175" class="aa">L</text>

 <line x1="-8.134987" y1="161.004953" x2="-8.134987" y2="182.867731" class="sidechain" />
 <circle cx="-8.134987" cy="182.867731" r="10.000000" class="s" />
 <text x="-8.134987" y="187.867731" class="aa">M</text>

 <line x1="13.727791" y1="161.004953" x2="13.727791" y2="139.142175" class="sidechain" />
 <circle cx="13.727791" cy="139.142175" r="10.000000" class="n" />
 <text x="13.727791" y="144.142175" class="aa">I</text>
 <text x="13.727791" y="150.342175" class="resi">253</text>

 <line x1="35.590569" y1="161.004953" x2="35.590569" y2="182.867731" class="sidechain" />
 <circle cx="35.590569" cy="182.867731" r="10.000000" class="w" />
 <text x="35.590569" y="187.867731" class="aa">S</text>

 <line x1="57.453347" y1="161.004953" x2="57.453347" y2="139.142175" class="sidechain" />
 <circle cx="57.453347" cy="139.142175" r="10.000000" class="b" />
 <text x="57.453347" y="144.142175" class="aa">R</text>

 <line x1="79.316124" y1="161.004953" x2="79.316124" y2="182.867731" class="sidechain" />
 <circle cx="79.316124" cy="182.867731" r="10.000000" class="w" />
 <text x="79.316124" y="187.867731" class="aa">T</text>

 <line x1="101.178902" y1="161.004953" x2="101.178902" y2="139.142175" class="sidechain" />
 <circle cx="101.178902" cy="139.142175" r="10.000000" class="p" />
 <text x="101.178902" y="144.142175" class="aa">P</text>

 <line x1="123.041680" y1="161.004953" x2="123.041680" y2="182.867731" class="sidechain" />
 <circle cx="123.041680" cy="182.867731" r="10.000000" class="a" />
 <text x="123.041680" y="187.867731" class="aa">E</text>

 <line x1="144.904458" y1="161.004953" x2="144.904458" y2="139.142175" class="sidechain" />
 <circle cx="144.904458" cy="139.142175" r="10.000000" class="n" />
 <text x="144.904458" y="144.142175" class="aa">V</text>

 <line x1="166.767236" y1="161.004953" x2="166.767236" y2="182.867731" class="sidechain" />
 <circle cx="166.767236" cy="182.867731" r="10.000000" class="w" />
 <text x="166.767236" y="187.867731" class="aa">T</text>
 <text x="166.767236" y="194.067731" class="resi">260</text>

 <line x1="188.630014" y1="161.004953" x2="188.630014" y2="139.142175" class="sidechain" />
 <circle cx="188.630014" cy="139.142175" r="10.000000" class="s" />
 <text x="188.630014" y="144.142175" class="aa">C</text>

 <line x1="210.492792" y1="161.004953" x2="210.492792" y2="182.867731" class="sidechain" />
 <circle cx="210.492792" cy="182.867731" r="10.000000" class="n" />
 <text x="210.492792" y="187.867731" class="aa">V</text>

 <line x1="232.355570" y1="161.004953" x2="232.355570" y2="139.142175" class="sidechain" />
 <circle cx="232.355570" cy="139.142175" r="10.000000" class="n" />
 <text x="232.355570" y="144.142175" class="aa">V</text>

 <line x1="254.218347" y1="161.004953" x2="254.218347" y2="182.867731" class="sidechain" />
 <circle cx="254.218347" cy="182.867731" r="10.000000" class="n" />
 <text x="254.218347" y="187.867731" class="aa">V</text>

 <line x1="276.081125" y1="161.004953" x2="276.081125" y2="139.142175" class="sidechain" />
 <circle cx="276.081125" cy="139.142175" r="10.000000" class="a" />
 <text x="276.081125" y="144.142175" class="aa">D</text>

 <line x1="297.943903" y1="161.004953" x2="297.943903" y2="182.867731" class="sidechain" />
 <circle cx="297.943903" cy="182.867731" r="10.000000" class="n" />
 <text x="297.943903" y="187.867731" class="aa">V</text>

 <line x1="319.806681" y1="161.004953" x2="319.806681" y2="139.142175" class="sidechain" />
 <circle cx="319.806681" cy="139.142175" r="10.000000" class="w" />
 <text x="319.806681" y="144.142175" class="aa">S</text>
 <text x="319.806681" y="150.342175" class="resi">267</text>

 <line x1="341.669459" y1="161.004953" x2="341.669459" y2="182.867731" class="sidechain" />
 <circle cx="341.669459" cy="182.867731" r="10.000000" class="b" />
 <text x="341.669459" y="187.867731" class="aa">H</text>

 <line x1="363.532237" y1="161.004953" x2="363.532237" y2="139.142175" class="sidechain" />
 <circle cx="363.532237" cy="139.142175" r="10.000000" class="a" />
 <text x="363.532237" y="144.142175" class="aa">E</text>

 <line x1="385.395015" y1="161.004953" x2="385.395015" y2="182.867731" class="sidechain" />
 <circle cx="385.395015" cy="182.867731" r="10.000000" class="a" />
 <text x="385.395015" y="187.867731" class="aa">D</text>

 <line x1="407.257793" y1="161.004953" x2="386.317049" y2="154.722730" class="sidechain" />
 <circle cx="386.317049" cy="154.722730" r="10.000000" class="p" />
 <text x="386.317049" y="159.722730" class="aa">P</text>

 <line x1="407.257793" y1="88.129027" x2="428.198536" y2="81.846804" class="sidechain" />
 <circle cx="428.198536" cy="81.846804" r="10.000000" class="a" />
 <text x="428.198536" y="86.846804" class="aa">E</text>

 <line x1="385.395015" y1="88.129027" x2="385.395015" y2="109.991805" class="sidechain" />
 <circle cx="385.395015" cy="109.991805" r="10.000000" class="n" />
 <text x="385.395015" y="114.991805" class="aa">V</text>

 <line x1="363.532237" y1="88.129027" x2="363.532237" y2="66.266249" class="sidechain" />
 <circle cx="363.532237" cy="66.266249" r="10.000000" class="b" />
 <text x="363.532237" y="71.266249" class="aa">K</text>
 <text x="363.532237" y="77.466249" class="resi">274</text>

 <line x1="341.669459" y1="88.129027" x2="341.669459" y2="109.991805" class="sidechain" />
 <circle cx="341.669459" cy="109.991805" r="10.000000" class="n" />
 <text x="341.669459" y="114.991805" class="aa">F</text>

 <line x1="319.806681" y1="88.129027" x2="319.806681" y2="66.266249" class="sidechain" />
 <circle cx="319.806681" cy="66.266249" r="10.000000" class="w" />
 <text x="319.806681" y="71.266249" class="aa">N</text>

 <line x1="297.943903" y1="88.129027" x2="297.943903" y2="109.991805" class="sidechain" />
 <circle cx="297.943903" cy="109.991805" r="10.000000" class="n" />
 <text x="297.943903" y="114.991805" class="aa">W</text>

 <line x1="276.081125" y1="88.129027" x2="276.081125" y2="66.266249" class="sidechain" />
 <circle cx="276.081125" cy="66.266249" r="10.000000" class="n" />
 <text x="276.081125" y="71.266249" class="aa">Y</text>

 <line x1="254.218347" y1="88.129027" x2="254.218347" y2="109.991805" class="sidechain" />
 <circle cx="254.218347" cy="109.991805" r="10.000000" class="n" />
 <text x="254.218347" y="114.991805" class="aa">V</text>

 <line x1="232.355570" y1="88.129027" x2="232.355570" y2="66.266249" class="sidechain" />
 <circle cx="232.355570" cy="66.266249" r="10.000000" class="a" />
 <text x="232.355570" y="71.266249" class="aa">D</text>

 <line x1="210.492792" y1="88.129027" x2="210.492792" y2="101.246694" class="sidechain" />
 <circle cx="210.492792" cy="101.246694" r="10.000000" class="g" />
 <text x="210.492792" y="106.246694" class="aa">G</text>
 <text x="210.492792" y="112.446694" class="resi">281</text>

 <line x1="188.630014" y1="88.129027" x2="188.630014" y2="66.266249" class="sidechain" />
 <circle cx="188.630014" cy="66.266249" r="10.000000" class="n" />
 <text x="188.630014" y="71.266249" class="aa">V</text>

 <line x1="166.767236" y1="88.129027" x2="166.767236" y2="109.991805" class="sidechain" />
 <circle cx="166.767236" cy="109.991805" r="10.000000" class="a" />
 <text x="166.767236" y="114.991805" class="aa">E</text>

 <line x1="144.904458" y1="88.129027" x2="144.904458" y2="66.266249" class="sidechain" />
 <circle cx="144.904458" cy="66.266249" r="10.000000" class="n" />
 <text x="144.904458" y="71.266249" class="aa">V</text>

 <line x1="123.041680" y1="88.129027" x2="123.041680" y2="109.991805" class="sidechain" />
 <circle cx="123.041680" cy="109.991805" r="10.000000" class="b" />
 <text x="123.041680" y="114.991805" class="aa">H</text>

 <line x1="101.178902" y1="88.129027" x2="101.178902" y2="66.266249" class="sidechain" />
 <circle cx="101.178902" cy="66.266249" r="10.000000" class="w" />
 <text x="101.178902" y="71.266249" class="aa">N</text>

 <line x1="79.316124" y1="88.129027" x2="79.316124" y2="109.991805" class="sidechain" />
 <circle cx="79.316124" cy="109.991805" r="10.000000" class="n" />
 <text x="79.316124" y="114.991805" class="aa">A</text>

 <line x1="57.453347" y1="88.129027" x2="57.453347" y2="66.266249" class="sidechain" />
 <circle cx="57.453347" cy="66.266249" r="10.000000" class="b" />
 <text x="57.453347" y="71.266249" class="aa">K</text>
 <text x="57.453347" y="77.466249" class="resi">288</text>

 <line x1="35.590569" y1="88.129027" x2="35.590569" y2="109.991805" class="sidechain" />
 <circle cx="35.590569" cy="109.991805" r="10.000000" class="w" />
 <text x="35.590569" y="114.991805" class="aa">T</text>

 <line x1="13.727791" y1="88.129027" x2="13.727791" y2="66.266249" class="sidechain" />
 <circle cx="13.727791" cy="66.266249" r="10.000000" class="b" />
 <text x="13.727791" y="71.266249" class="aa">K</text>

 <line x1="-8.134987" y1="88.129027" x2="-8.134987" y2="109.991805" class="sidechain" />
 <circle cx="-8.134987" cy="109.991805" r="10.000000" class="p" />
 <text x="-8.134987" y="114.991805" class="aa">P</text>

 <line x1="-29.997765" y1="88.129027" x2="-29.997765" y2="66.266249" class="sidechain" />
 <circle cx="-29.997765" cy="66.266249" r="10.000000" class="b" />
 <text x="-29.997765" y="71.266249" class="aa">R</text>

 <line x1="-51.860543" y1="88.129027" x2="-51.860543" y2="109.991805" class="sidechain" />
 <circle cx="-51.860543" cy="109.991805" r="10.000000" class="a" />
 <text x="-51.860543" y="114.991805" class="aa">E</text>

 <line x1="-73.723321" y1="88.129027" x2="-73.723321" y2="66.266249" class="sidechain" />
 <circle cx="-73.723321" cy="66.266249" r="10.000000" class="a" />
 <text x="-73.723321" y="71.266249" class="aa">E</text>

 <line x1="-95.586099" y1="88.129027" x2="-95.586099" y2="109.991805" class="sidechain" />
 <circle cx="-95.586099" cy="109.991805" r="10.000000" class="w" />
 <text x="-95.586099" y="114.991805" class="aa">Q</text>
 <text x="-95.586099" y="121.191805" class="resi">295</text>

 <line x1="-117.448876" y1="88.129027" x2="-117.448876" y2="66.266249" class="sidechain" />
 <circle cx="-117.448876" cy="66.266249" r="10.000000" class="n" />
 <text x="-117.448876" y="71.266249" class="aa">Y</text>

 <line x1="-139.311654" y1="88.129027" x2="-139.311654" y2="109.991805" class="sidechain" />
 <circle cx="-139.311654" cy="109.991805" r="10.000000" class="w" />
 <text x="-139.311654" y="114.991805" class="aa">N</text>

 <line x1="-161.174432" y1="88.129027" x2="-161.174432" y2="66.266249" class="sidechain" />
 <circle cx="-161.174432" cy="66.266249" r="10.000000" class="w" />
 <text x="-161.174432" y="71.266249" class="aa">S</text>

 <line x1="-183.037210" y1="88.129027" x2="-183.037210" y2="109.991805" class="sidechain" />
 <circle cx="-183.037210" cy="109.991805" r="10.000000" class="w" />
 <text x="-183.037210" y="114.991805" class="aa">T</text>

 <line x1="-204.899988" y1="88.129027" x2="-204.899988" y2="66.266249" class="sidechain" />
 <circle cx="-204.899988" cy="66.266249" r="10.000000" class="n" />
 <text x="-204.899988" y="71.266249" class="aa">Y</text>

 <line x1="-226.762766" y1="88.129027" x2="-226.762766" y2="109.991805" class="sidechain" />
 <circle cx="-226.762766" cy="109.991805" r="10.000000" class="b" />
 <text x="-226.762766" y="114.991805" class="aa">R</text>

 <line x1="-248.625544" y1="88.129027" x2="-248.625544" y2="66.266249" class="sidechain" />
 <circle cx="-248.625544" cy="66.266249" r="10.000000" class="n" />
 <text x="-248.625544" y="71.266249" class="aa">V</text>
 <text x="-248.625544" y="77.466249" class="resi">302</text>

 <line x1="-270.488322" y1="88.129027" x2="-270.488322" y2="109.991805" class="sidechain" />
 <circle cx="-270.488322" cy="109.991805" r="10.000000" class="n" />
 <text x="-270.488322" y="114.991805" class="aa">V</text>

 <line x1="-292.351099" y1="88.129027" x2="-292.351099" y2="66.266249" class="sidechain" />
 <circle cx="-292.351099" cy="66.266249" r="10.000000" class="w" />
 <text x="-292.351099" y="71.266249" class="aa">S</text>

 <line x1="-314.213877" y1="88.129027" x2="-314.213877" y2="109.991805" class="sidechain" />
 <circle cx="-314.213877" cy="109.991805" r="10.000000" class="n" />
 <text x="-314.213877" y="114.991805" class="aa">V</text>

 <line x1="-336.076655" y1="88.129027" x2="-336.076655" y2="66.266249" class="sidechain" />
 <circle cx="-336.076655" cy="66.266249" r="10.000000" class="n" />
 <text x="-336.076655" y="71.266249" class="aa">L</text>

 <line x1="-357.939433" y1="88.129027" x2="-357.939433" y2="109.991805" class="sidechain" />
 <circle cx="-357.939433" cy="109.991805" r="10.000000" class="w" />
 <text x="-357.939433" y="114.991805" class="aa">T</text>

 <line x1="-379.802211" y1="88.129027" x2="-379.802211" y2="66.266249" class="sidechain" />
 <circle cx="-379.802211" cy="66.266249" r="10.000000" class="n" />
 <text x="-379.802211" y="71.266249" class="aa">V</text>

 <line x1="-401.664989" y1="88.129027" x2="-401.664989" y2="109.991805" class="sidechain" />
 <circle cx="-401.664989" cy="109.991805" r="10.000000" class="n" />
 <text x="-401.664989" y="114.991805" class="aa">L</text>
 <text x="-401.664989" y="121.191805" class="resi">309</text>

 <line x1="-423.527767" y1="88.129027" x2="-423.527767" y2="66.266249" class="sidechain" />
 <circle cx="-423.527767" cy="66.266249" r="10.000000" class="b" />
 <text x="-423.527767" y="71.266249" class="aa">H</text>

 <line x1="-445.390545" y1="88.129027" x2="-466.331288" y2="94.411250" class="sidechain" />
 <circle cx="-466.331288" cy="94.411250" r="10.000000" class="w" />
 <text x="-466.331288" y="99.411250" class="aa">Q</text>

 <line x1="-445.390545" y1="15.253101" x2="-424.449801" y2="21.535324" class="sidechain" />
 <circle cx="-424.449801" cy="21.535324" r="10.000000" class="a" />
 <text x="-424.449801" y="26.535324" class="aa">D</text>

 <line x1="-423.527767" y1="15.253101" x2="-423.527767" y2="-6.609677" class="sidechain" />
 <circle cx="-423.527767" cy="-6.609677" r="10.000000" class="n" />
 <text x="-423.527767" y="-1.609677" class="aa">W</text>

 <line x1="-401.664989" y1="15.253101" x2="-401.664989" y2="37.115879" class="sidechain" />
 <circle cx="-401.664989" cy="37.115879" r="10.000000" class="n" />
 <text x="-401.664989" y="42.115879" class="aa">L</text>

 <line x1="-379.802211" y1="15.253101" x2="-379.802211" y2="-6.609677" class="sidechain" />
 <circle cx="-379.802211" cy="-6.609677" r="10.000000" class="w" />
 <text x="-379.802211" y="-1.609677" class="aa">N</text>

 <line x1="-357.939433" y1="15.253101" x2="-357.939433" y2="28.370768" class="sidechain" />
 <circle cx="-357.939433" cy="28.370768" r="10.000000" class="g" />
 <text x="-357.939433" y="33.370768" class="aa">G</text>
 <text x="-357.939433" y="39.570768" class="resi">316</text>

 <line x1="-336.076655" y1="15.253101" x2="-336.076655" y2="-6.609677" class="sidechain" />
 <circle cx="-336.076655" cy="-6.609677" r="10.000000" class="b" />
 <text x="-336.076655" y="-1.609677" class="aa">K</text>

 <line x1="-314.213877" y1="15.253101" x2="-314.213877" y2="37.115879" class="sidechain" />
 <circle cx="-314.213877" cy="37.115879" r="10.000000" class="a" />
 <text x="-314.213877" y="42.115879" class="aa">E</text>

 <line x1="-292.351099" y1="15.253101" x2="-292.351099" y2="-6.609677" class="sidechain" />
 <circle cx="-292.351099" cy="-6.609677" r="10.000000" class="n" />
 <text x="-292.351099" y="-1.609677" class="aa">Y</text>

 <line x1="-270.488322" y1="15.253101" x2="-270.488322" y2="37.115879" class="sidechain" />
 <circle cx="-270.488322" cy="37.115879" r="10.000000" class="b" />
 <text x="-270.488322" y="42.115879" class="aa">K</text>

 <line x1="-248.625544" y1="15.253101" x2="-248.625544" y2="-6.609677" class="sidechain" />
 <circle cx="-248.625544" cy="-6.609677" r="10.000000" class="s" />
 <text x="-248.625544" y="-1.609677" class="aa">C</text>

 <line x1="-226.762766" y1="15.253101" x2="-226.762766" y2="37.115879" class="sidechain" />
 <circle cx="-226.762766" cy="37.115879" r="10.000000" class="b" />
 <text x="-226.762766" y="42.115879" class="aa">K</text>

 <line x1="-204.899988" y1="15.253101" x2="-204.899988" y2="-6.609677" class="sidechain" />
 <circle cx="-204.899988" cy="-6.609677" r="10.000000" class="n" />
 <text x="-204.899988" y="-1.609677" class="aa">V</text>
 <text x="-204.899988" y="4.590323" class="resi">323</text>

 <line x1="-183.037210" y1="15.253101" x2="-183.037210" y2="37.115879" class="sidechain" />
 <circle cx="-183.037210" cy="37.115879" r="10.000000" class="w" />
 <text x="-183.037210" y="42.115879" class="aa">S</text>

 <line x1="-161.174432" y1="15.253101" x2="-161.174432" y2="-6.609677" class="sidechain" />
 <circle cx="-161.174432" cy="-6.609677" r="10.000000" class="w" />
 <text x="-161.174432" y="-1.609677" class="aa">N</text>

 <line x1="-139.311654" y1="15.253101" x2="-139.311654" y2="37.115879" class="sidechain" />
 <circle cx="-139.311654" cy="37.115879" r="10.000000" class="b" />
 <text x="-139.311654" y="42.115879" class="aa">K</text>

 <line x1="-117.448876" y1="15.253101" x2="-117.448876" y2="-6.609677" class="sidechain" />
 <circle cx="-117.448876" cy="-6.609677" r="10.000000" class="n" />
 <text x="-117.448876" y="-1.609677" class="aa">A</text>

 <line x1="-95.586099" y1="15.253101" x2="-95.586099" y2="37.115879" class="sidechain" />
 <circle cx="-95.586099" cy="37.115879" r="10.000000" class="n" />
 <text x="-95.586099" y="42.115879" class="aa">L</text>

 <line x1="-73.723321" y1="15.253101" x2="-73.723321" y2="-6.609677" class="sidechain" />
 <circle cx="-73.723321" cy="-6.609677" r="10.000000" class="p" />
 <text x="-73.723321" y="-1.609677" class="aa">P</text>

 <line x1="-51.860543" y1="15.253101" x2="-51.860543" y2="37.115879" class="sidechain" />
 <circle cx="-51.860543" cy="37.115879" r="10.000000" class="n" />
 <text x="-51.860543" y="42.115879" class="aa">A</text>
 <text x="-51.860543" y="48.315879" class="resi">330</text>

 <line x1="-29.997765" y1="15.253101" x2="-29.997765" y2="-6.609677" class="sidechain" />
 <circle cx="-29.997765" cy="-6.609677" r="10.000000" class="p" />
 <text x="-29.997765" y="-1.609677" class="aa">P</text>

 <line x1="-8.134987" y1="15.253101" x2="-8.134987" y2="37.115879" class="sidechain" />
 <circle cx="-8.134987" cy="37.115879" r="10.000000" class="n" />
 <text x="-8.134987" y="42.115879" class="aa">I</text>

 <line x1="13.727791" y1="15.253101" x2="13.727791" y2="-6.609677" class="sidechain" />
 <circle cx="13.727791" cy="-6.609677" r="10.000000" class="a" />
 <text x="13.727791" y="-1.609677" class="aa">E</text>

 <line x1="35.590569" y1="15.253101" x2="35.590569" y2="37.115879" class="sidechain" />
 <circle cx="35.590569" cy="37.115879" r="10.000000" class="b" />
 <text x="35.590569" y="42.115879" class="aa">K</text>

 <line x1="57.453347" y1="15.253101" x2="57.453347" y2="-6.609677" class="sidechain" />
 <circle cx="57.453347" cy="-6.609677" r="10.000000" class="w" />
 <text x="57.453347" y="-1.609677" class="aa">T</text>

 <line x1="79.316124" y1="15.253101" x2="79.316124" y2="37.115879" class="sidechain" />
 <circle cx="79.316124" cy="37.115879" r="10.000000" class="n" />
 <text x="79.316124" y="42.115879" class="aa">I</text>

 <line x1="101.178902" y1="15.253101" x2="101.178902" y2="-6.609677" class="sidechain" />
 <circle cx="101.178902" cy="-6.609677" r="10.000000" class="w" />
 <text x="101.178902" y="-1.609677" class="aa">S</text>
 <text x="101.178902" y="4.590323" class="resi">337</text>

 <line x1="123.041680" y1="15.253101" x2="123.041680" y2="37.115879" class="sidechain" />
 <circle cx="123.041680" cy="37.115879" r="10.000000" class="b" />
 <text x="123.041680" y="42.115879" class="aa">K</text>

 <line x1="144.904458" y1="15.253101" x2="144.904458" y2="-6.609677" class="sidechain" />
 <circle cx="144.904458" cy="-6.609677" r="10.000000" class="n" />
 <text x="144.904458" y="-1.609677" class="aa">A</text>

 <line x1="166.767236" y1="15.253101" x2="166.767236" y2="37.115879" class="sidechain" />
 <circle cx="166.767236" cy="37.115879" r="10.000000" class="b" />
 <text x="166.767236" y="42.115879" class="aa">K</text>

 <line x1="188.630014" y1="15.253101" x2="188.630014" y2="2.135434" class="sidechain" />
 <circle cx="188.630014" cy="2.135434" r="10.000000" class="g" />
 <text x="188.630014" y="7.135434" class="aa">G</text>

 <line x1="210.492792" y1="15.253101" x2="210.492792" y2="37.115879" class="sidechain" />
 <circle cx="210.492792" cy="37.115879" r="10.000000" class="w" />
 <text x="210.492792" y="42.115879" class="aa">Q</text>

 <line x1="232.355570" y1="15.253101" x2="232.355570" y2="-6.609677" class="sidechain" />
 <circle cx="232.355570" cy="-6.609677" r="10.000000" class="p" />
 <text x="232.355570" y="-1.609677" class="aa">P</text>

 <line x1="254.218347" y1="15.253101" x2="254.218347" y2="37.115879" class="sidechain" />
 <circle cx="254.218347" cy="37.115879" r="10.000000" class="b" />
 <text x="254.218347" y="42.115879" class="aa">R</text>
 <text x="254.218347" y="48.315879" class="resi">344</text>

 <line x1="276.081125" y1="15.253101" x2="276.081125" y2="-6.609677" class="sidechain" />
 <circle cx="276.081125" cy="-6.609677" r="10.000000" class="a" />
 <text x="276.081125" y="-1.609677" class="aa">E</text>

 <line x1="297.943903" y1="15.253101" x2="297.943903" y2="37.115879" class="sidechain" />
 <circle cx="297.943903" cy="37.115879" r="10.000000" class="p" />
 <text x="297.943903" y="42.115879" class="aa">P</text>

 <line x1="319.806681" y1="15.253101" x2="319.806681" y2="-6.609677" class="sidechain" />
 <circle cx="319.806681" cy="-6.609677" r="10.000000" class="w" />
 <text x="319.806681" y="-1.609677" class="aa">Q</text>

 <line x1="341.669459" y1="15.253101" x2="341.669459" y2="37.115879" class="sidechain" />
 <circle cx="341.669459" cy="37.115879" r="10.000000" class="n" />
 <text x="341.669459" y="42.115879" class="aa">V</text>

 <line x1="363.532237" y1="15.253101" x2="363.532237" y2="-6.609677" class="sidechain" />
 <circle cx="363.532237" cy="-6.609677" r="10.000000" class="n" />
 <text x="363.532237" y="-1.609677" class="aa">Y</text>

 <line x1="385.395015" y1="15.253101" x2="385.395015" y2="37.115879" class="sidechain" />
 <circle cx="385.395015" cy="37.115879" r="10.000000" class="w" />
 <text x="385.395015" y="42.115879" class="aa">T</text>

 <line x1="407.257793" y1="15.253101" x2="386.317049" y2="8.970878" class="sidechain" />
 <circle cx="386.317049" cy="8.970878" r="10.000000" class="n" />
 <text x="386.317049" y="13.970878" class="aa">L</text>
 <text x="386.317049" y="20.170878" class="resi">351</text>

 <line x1="407.257793" y1="-57.622825" x2="428.198536" y2="-63.905048" class="sidechain" />
 <circle cx="428.198536" cy="-63.905048" r="10.000000" class="p" />
 <text x="428.198536" y="-58.905048" class="aa">P</text>

 <line x1="385.395015" y1="-57.622825" x2="385.395015" y2="-35.760048" class="sidechain" />
 <circle cx="385.395015" cy="-35.760048" r="10.000000" class="p" />
 <text x="385.395015" y="-30.760048" class="aa">P</text>

 <line x1="363.532237" y1="-57.622825" x2="363.532237" y2="-79.485603" class="sidechain" />
 <circle cx="363.532237" cy="-79.485603" r="10.000000" class="w" />
 <text x="363.532237" y="-74.485603" class="aa">S</text>

 <line x1="341.669459" y1="-57.622825" x2="341.669459" y2="-35.760048" class="sidechain" />
 <circle cx="341.669459" cy="-35.760048" r="10.000000" class="b" />
 <text x="341.669459" y="-30.760048" class="aa">R</text>

 <line x1="319.806681" y1="-57.622825" x2="319.806681" y2="-79.485603" class="sidechain" />
 <circle cx="319.806681" cy="-79.485603" r="10.000000" class="a" />
 <text x="319.806681" y="-74.485603" class="aa">D</text>

 <line x1="297.943903" y1="-57.622825" x2="297.943903" y2="-35.760048" class="sidechain" />
 <circle cx="297.943903" cy="-35.760048" r="10.000000" class="a" />
 <text x="297.943903" y="-30.760048" class="aa">E</text>

 <line x1="276.081125" y1="-57.622825" x2="276.081125" y2="-79.485603" class="sidechain" />
 <circle cx="276.081125" cy="-79.485603" r="10.000000" class="n" />
 <text x="276.081125" y="-74.485603" class="aa">L</text>
 <text x="276.081125" y="-68.285603" class="resi">358</text>

 <line x1="254.218347" y1="-57.622825" x2="254.218347" y2="-35.760048" class="sidechain" />
 <circle cx="254.218347" cy="-35.760048" r="10.000000" class="w" />
 <text x="254.218347" y="-30.760048" class="aa">T</text>

 <line x1="232.355570" y1="-57.622825" x2="232.355570" y2="-79.485603" class="sidechain" />
 <circle cx="232.355570" cy="-79.485603" r="10.000000" class="b" />
 <text x="232.355570" y="-74.485603" class="aa">K</text>

 <line x1="210.492792" y1="-57.622825" x2="210.492792" y2="-35.760048" class="sidechain" />
 <circle cx="210.492792" cy="-35.760048" r="10.000000" class="w" />
 <text x="210.492792" y="-30.760048" class="aa">N</text>

 <line x1="188.630014" y1="-57.622825" x2="188.630014" y2="-79.485603" class="sidechain" />
 <circle cx="188.630014" cy="-79.485603" r="10.000000" class="w" />
 <text x="188.630014" y="-74.485603" class="aa">Q</text>

 <line x1="166.767236" y1="-57.622825" x2="166.767236" y2="-35.760048" class="sidechain" />
 <circle cx="166.767236" cy="-35.760048" r="10.000000" class="n" />
 <text x="166.767236" y="-30.760048" class="aa">V</text>

 <line x1="144.904458" y1="-57.622825" x2="144.904458" y2="-79.485603" class="sidechain" />
 <circle cx="144.904458" cy="-79.485603" r="10.000000" class="w" />
 <text x="144.904458" y="-74.485603" class="aa">S</text>

 <line x1="123.041680" y1="-57.622825" x2="123.041680" y2="-35.760048" class="sidechain" />
 <circle cx="123.041680" cy="-35.760048" r="10.000000" class="n" />
 <text x="123.041680" y="-30.760048" class="aa">L</text>
 <text x="123.041680" y="-24.560048" class="resi">365</text>

 <line x1="101.178902" y1="-57.622825" x2="101.178902" y2="-79.485603" class="sidechain" />
 <circle cx="101.178902" cy="-79.485603" r="10.000000" class="w" />
 <text x="101.178902" y="-74.485603" class="aa">T</text>

 <line x1="79.316124" y1="-57.622825" x2="79.316124" y2="-35.760048" class="sidechain" />
 <circle cx="79.316124" cy="-35.760048" r="10.000000" class="s" />
 <text x="79.316124" y="-30.760048" class="aa">C</text>

 <line x1="57.453347" y1="-57.622825" x2="57.453347" y2="-79.485603" class="sidechain" />
 <circle cx="57.453347" cy="-79.485603" r="10.000000" class="n" />
 <text x="57.453347" y="-74.485603" class="aa">L</text>

 <line x1="35.590569" y1="-57.622825" x2="35.590569" y2="-35.760048" class="sidechain" />
 <circle cx="35.590569" cy="-35.760048" r="10.000000" class="n" />
 <text x="35.590569" y="-30.760048" class="aa">V</text>

 <line x1="13.727791" y1="-57.622825" x2="13.727791" y2="-79.485603" class="sidechain" />
 <circle cx="13.727791" cy="-79.485603" r="10.000000" class="b" />
 <text x="13.727791" y="-74.485603" class="aa">K</text>

 <line x1="-8.134987" y1="-57.622825" x2="-8.134987" y2="-44.505159" class="sidechain" />
 <circle cx="-8.134987" cy="-44.505159" r="10.000000" class="g" />
 <text x="-8.134987" y="-39.505159" class="aa">G</text>

 <line x1="-29.997765" y1="-57.622825" x2="-29.997765" y2="-79.485603" class="sidechain" />
 <circle cx="-29.997765" cy="-79.485603" r="10.000000" class="n" />
 <text x="-29.997765" y="-74.485603" class="aa">F</text>
 <text x="-29.997765" y="-68.285603" class="resi">372</text>

 <line x1="-51.860543" y1="-57.622825" x2="-51.860543" y2="-35.760048" class="sidechain" />
 <circle cx="-51.860543" cy="-35.760048" r="10.000000" class="n" />
 <text x="-51.860543" y="-30.760048" class="aa">Y</text>

 <line x1="-73.723321" y1="-57.622825" x2="-73.723321" y2="-79.485603" class="sidechain" />
 <circle cx="-73.723321" cy="-79.485603" r="10.000000" class="p" />
 <text x="-73.723321" y="-74.485603" class="aa">P</text>

 <line x1="-95.586099" y1="-57.622825" x2="-95.586099" y2="-35.760048" class="sidechain" />
 <circle cx="-95.586099" cy="-35.760048" r="10.000000" class="w" />
 <text x="-95.586099" y="-30.760048" class="aa">S</text>

 <line x1="-117.448876" y1="-57.622825" x2="-117.448876" y2="-79.485603" class="sidechain" />
 <circle cx="-117.448876" cy="-79.485603" r="10.000000" class="a" />
 <text x="-117.448876" y="-74.485603" class="aa">D</text>

 <line x1="-139.311654" y1="-57.622825" x2="-139.311654" y2="-35.760048" class="sidechain" />
 <circle cx="-139.311654" cy="-35.760048" r="10.000000" class="n" />
 <text x="-139.311654" y="-30.760048" class="aa">I</text>

 <line x1="-161.174432" y1="-57.622825" x2="-161.174432" y2="-79.485603" class="sidechain" />
 <circle cx="-161.174432" cy="-79.485603" r="10.000000" class="n" />
 <text x="-161.174432" y="-74.485603" class="aa">A</text>

 <line x1="-183.037210" y1="-57.622825" x2="-183.037210" y2="-35.760048" class="sidechain" />
 <circle cx="-183.037210" cy="-35.760048" r="10.000000" class="n" />
 <text x="-183.037210" y="-30.760048" class="aa">V</text>
 <text x="-183.037210" y="-24.560048" class="resi">379</text>

 <line x1="-204.899988" y1="-57.622825" x2="-204.899988" y2="-79.485603" class="sidechain" />
 <circle cx="-204.899988" cy="-79.485603" r="10.000000" class="a" />
 <text x="-204.899988" y="-74.485603" class="aa">E</text>

 <line x1="-226.762766" y1="-57.622825" x2="-226.762766" y2="-35.760048" class="sidechain" />
 <circle cx="-226.762766" cy="-35.760048" r="10.000000" class="n" />
 <text x="-226.762766" y="-30.760048" class="aa">W</text>

 <line x1="-248.625544" y1="-57.622825" x2="-248.625544" y2="-79.485603" class="sidechain" />
 <circle cx="-248.625544" cy="-79.485603" r="10.000000" class="a" />
 <text x="-248.625544" y="-74.485603" class="aa">E</text>

 <line x1="-270.488322" y1="-57.622825" x2="-270.488322" y2="-35.760048" class="sidechain" />
 <circle cx="-270.488322" cy="-35.760048" r="10.000000" class="w" />
 <text x="-270.488322" y="-30.760048" class="aa">S</text>

 <line x1="-292.351099" y1="-57.622825" x2="-292.351099" y2="-79.485603" class="sidechain" />
 <circle cx="-292.351099" cy="-79.485603" r="10.000000" class="w" />
 <text x="-292.351099" y="-74.485603" class="aa">N</text>

 <line x1="-314.213877" y1="-57.622825" x2="-314.213877" y2="-44.505159" class="sidechain" />
 <circle cx="-314.213877" cy="-44.505159" r="10.000000" class="g" />
 <text x="-314.213877" y="-39.505159" class="aa">G</text>

 <line x1="-336.076655" y1="-57.622825" x2="-336.076655" y2="-79.485603" class="sidechain" />
 <circle cx="-336.076655" cy="-79.485603" r="10.000000" class="w" />
 <text x="-336.076655" y="-74.485603" class="aa">Q</text>
 <text x="-336.076655" y="-68.285603" class="resi">386</text>

 <line x1="-357.939433" y1="-57.622825" x2="-357.939433" y2="-35.760048" class="sidechain" />
 <circle cx="-357.939433" cy="-35.760048" r="10.000000" class="p" />
 <text x="-357.939433" y="-30.760048" class="aa">P</text>

 <line x1="-379.802211" y1="-57.622825" x2="-379.802211" y2="-79.485603" class="sidechain" />
 <circle cx="-379.802211" cy="-79.485603" r="10.000000" class="a" />
 <text x="-379.802211" y="-74.485603" class="aa">E</text>

 <line x1="-401.664989" y1="-57.622825" x2="-401.664989" y2="-35.760048" class="sidechain" />
 <circle cx="-401.664989" cy="-35.760048" r="10.000000" class="w" />
 <text x="-401.664989" y="-30.760048" class="aa">N</text>

 <line x1="-423.527767" y1="-57.622825" x2="-423.527767" y2="-79.485603" class="sidechain" />
 <circle cx="-423.527767" cy="-79.485603" r="10.000000" class="w" />
 <text x="-423.527767" y="-74.485603" class="aa">N</text>

 <line x1="-445.390545" y1="-57.622825" x2="-466.331288" y2="-51.340602" class="sidechain" />
 <circle cx="-466.331288" cy="-51.340602" r="10.000000" class="n" />
 <text x="-466.331288" y="-46.340602" class="aa">Y</text>

 <line x1="-445.390545" y1="-130.498752" x2="-424.449801" y2="-124.216529" class="sidechain" />
 <circle cx="-424.449801" cy="-124.216529" r="10.000000" class="b" />
 <text x="-424.449801" y="-119.216529" class="aa">K</text>

 <line x1="-423.527767" y1="-130.498752" x2="-423.527767" y2="-152.361530" class="sidechain" />
 <circle cx="-423.527767" cy="-152.361530" r="10.000000" class="w" />
 <text x="-423.527767" y="-147.361530" class="aa">T</text>
 <text x="-423.527767" y="-141.161530" class="resi">393</text>

 <line x1="-401.664989" y1="-130.498752" x2="-401.664989" y2="-108.635974" class="sidechain" />
 <circle cx="-401.664989" cy="-108.635974" r="10.000000" class="w" />
 <text x="-401.664989" y="-103.635974" class="aa">T</text>

 <line x1="-379.802211" y1="-130.498752" x2="-379.802211" y2="-152.361530" class="sidechain" />
 <circle cx="-379.802211" cy="-152.361530" r="10.000000" class="p" />
 <text x="-379.802211" y="-147.361530" class="aa">P</text>

 <line x1="-357.939433" y1="-130.498752" x2="-357.939433" y2="-108.635974" class="sidechain" />
 <circle cx="-357.939433" cy="-108.635974" r="10.000000" class="p" />
 <text x="-357.939433" y="-103.635974" class="aa">P</text>

 <line x1="-336.076655" y1="-130.498752" x2="-336.076655" y2="-152.361530" class="sidechain" />
 <circle cx="-336.076655" cy="-152.361530" r="10.000000" class="n" />
 <text x="-336.076655" y="-147.361530" class="aa">V</text>

 <line x1="-314.213877" y1="-130.498752" x2="-314.213877" y2="-108.635974" class="sidechain" />
 <circle cx="-314.213877" cy="-108.635974" r="10.000000" class="n" />
 <text x="-314.213877" y="-103.635974" class="aa">L</text>

 <line x1="-292.351099" y1="-130.498752" x2="-292.351099" y2="-152.361530" class="sidechain" />
 <circle cx="-292.351099" cy="-152.361530" r="10.000000" class="a" />
 <text x="-292.351099" y="-147.361530" class="aa">D</text>

 <line x1="-270.488322" y1="-130.498752" x2="-270.488322" y2="-108.635974" class="sidechain" />
 <circle cx="-270.488322" cy="-108.635974" r="10.000000" class="w" />
 <text x="-270.488322" y="-103.635974" class="aa">S</text>
 <text x="-270.488322" y="-97.435974" class="resi">400</text>

 <line x1="-248.625544" y1="-130.498752" x2="-248.625544" y2="-152.361530" class="sidechain" />
 <circle cx="-248.625544" cy="-152.361530" r="10.000000" class="a" />
 <text x="-248.625544" y="-147.361530" class="aa">D</text>

 <line x1="-226.762766" y1="-130.498752" x2="-226.762766" y2="-117.381085" class="sidechain" />
 <circle cx="-226.762766" cy="-117.381085" r="10.000000" class="g" />
 <text x="-226.762766" y="-112.381085" class="aa">G</text>

 <line x1="-204.899988" y1="-130.498752" x2="-204.899988" y2="-152.361530" class="sidechain" />
 <circle cx="-204.899988" cy="-152.361530" r="10.000000" class="w" />
 <text x="-204.899988" y="-147.361530" class="aa">S</text>

 <line x1="-183.037210" y1="-130.498752" x2="-183.037210" y2="-108.635974" class="sidechain" />
 <circle cx="-183.037210" cy="-108.635974" r="10.000000" class="n" />
 <text x="-183.037210" y="-103.635974" class="aa">F</text>

 <line x1="-161.174432" y1="-130.498752" x2="-161.174432" y2="-152.361530" class="sidechain" />
 <circle cx="-161.174432" cy="-152.361530" r="10.000000" class="n" />
 <text x="-161.174432" y="-147.361530" class="aa">F</text>

 <line x1="-139.311654" y1="-130.498752" x2="-139.311654" y2="-108.635974" class="sidechain" />
 <circle cx="-139.311654" cy="-108.635974" r="10.000000" class="n" />
 <text x="-139.311654" y="-103.635974" class="aa">L</text>

 <line x1="-117.448876" y1="-130.498752" x2="-117.448876" y2="-152.361530" class="sidechain" />
 <circle cx="-117.448876" cy="-152.361530" r="10.000000" class="n" />
 <text x="-117.448876" y="-147.361530" class="aa">Y</text>
 <text x="-117.448876" y="-141.161530" class="resi">407</text>

 <line x1="-95.586099" y1="-130.498752" x2="-95.586099" y2="-108.635974" class="sidechain" />
 <circle cx="-95.586099" cy="-108.635974" r="10.000000" class="w" />
 <text x="-95.586099" y="-103.635974" class="aa">S</text>

 <line x1="-73.723321" y1="-130.498752" x2="-73.723321" y2="-152.361530" class="sidechain" />
 <circle cx="-73.723321" cy="-152.361530" r="10.000000" class="b" />
 <text x="-73.723321" y="-147.361530" class="aa">K</text>

 <line x1="-51.860543" y1="-130.498752" x2="-51.860543" y2="-108.635974" class="sidechain" />
 <circle cx="-51.860543" cy="-108.635974" r="10.000000" class="n" />
 <text x="-51.860543" y="-103.635974" class="aa">L</text>

 <line x1="-29.997765" y1="-130.498752" x2="-29.997765" y2="-152.361530" class="sidechain" />
 <circle cx="-29.997765" cy="-152.361530" r="10.000000" class="w" />
 <text x="-29.997765" y="-147.361530" class="aa">T</text>

 <line x1="-8.134987" y1="-130.498752" x2="-8.134987" y2="-108.635974" class="sidechain" />
 <circle cx="-8.134987" cy="-108.635974" r="10.000000" class="n" />
 <text x="-8.134987" y="-103.635974" class="aa">V</text>

 <line x1="13.727791" y1="-130.498752" x2="13.727791" y2="-152.361530" class="sidechain" />
 <circle cx="13.727791" cy="-152.361530" r="10.000000" class="a" />
 <text x="13.727791" y="-147.361530" class="aa">D</text>

 <line x1="35.590569" y1="-130.498752" x2="35.590569" y2="-108.635974" class="sidechain" />
 <circle cx="35.590569" cy="-108.635974" r="10.000000" class="b" />
 <text x="35.590569" y="-103.635974" class="aa">K</text>
 <text x="35.590569" y="-97.435974" class="resi">414</text>

 <line x1="57.453347" y1="-130.498752" x2="57.453347" y2="-152.361530" class="sidechain" />
 <circle cx="57.453347" cy="-152.361530" r="10.000000" class="w" />
 <text x="57.453347" y="-147.361530" class="aa">S</text>

 <line x1="79.316124" y1="-130.498752" x2="79.316124" y2="-108.635974" class="sidechain" />
 <circle cx="79.316124" cy="-108.635974" r="10.000000" class="b" />
 <text x="79.316124" y="-103.635974" class="aa">R</text>

 <line x1="101.178902" y1="-130.498752" x2="101.178902" y2="-152.361530" class="sidechain" />
 <circle cx="101.178902" cy="-152.361530" r="10.000000" class="n" />
 <text x="101.178902" y="-147.361530" class="aa">W</text>

 <line x1="123.041680" y1="-130.498752" x2="123.041680" y2="-108.635974" class="sidechain" />
 <circle cx="123.041680" cy="-108.635974" r="10.000000" class="w" />
 <text x="123.041680" y="-103.635974" class="aa">Q</text>

 <line x1="144.904458" y1="-130.498752" x2="144.904458" y2="-152.361530" class="sidechain" />
 <circle cx="144.904458" cy="-152.361530" r="10.000000" class="w" />
 <text x="144.904458" y="-147.361530" class="aa">Q</text>

 <line x1="166.767236" y1="-130.498752" x2="166.767236" y2="-117.381085" class="sidechain" />
 <circle cx="166.767236" cy="-117.381085" r="10.000000" class="g" />
 <text x="166.767236" y="-112.381085" class="aa">G</text>

 <line x1="188.630014" y1="-130.498752" x2="188.630014" y2="-152.361530" class="sidechain" />
 <circle cx="188.630014" cy="-152.361530" r="10.000000" class="w" />
 <text x="188.630014" y="-147.361530" class="aa">N</text>
 <text x="188.630014" y="-141.161530" class="resi">421</text>

 <line x1="210.492792" y1="-130.498752" x2="210.492792" y2="-108.635974" class="sidechain" />
 <circle cx="210.492792" cy="-108.635974" r="10.000000" class="n" />
 <text x="210.492792" y="-103.635974" class="aa">V</text>

 <line x1="232.355570" y1="-130.498752" x2="232.355570" y2="-152.361530" class="sidechain" />
 <circle cx="232.355570" cy="-152.361530" r="10.000000" class="n" />
 <text x="232.355570" y="-147.361530" class="aa">F</text>

 <line x1="254.218347" y1="-130.498752" x2="254.218347" y2="-108.635974" class="sidechain" />
 <circle cx="254.218347" cy="-108.635974" r="10.000000" class="w" />
 <text x="254.218347" y="-103.635974" class="aa">S</text>

 <line x1="276.081125" y1="-130.498752" x2="276.081125" y2="-152.361530" class="sidechain" />
 <circle cx="276.081125" cy="-152.361530" r="10.000000" class="s" />
 <text x="276.081125" y="-147.361530" class="aa">C</text>

 <line x1="297.943903" y1="-130.498752" x2="297.943903" y2="-108.635974" class="sidechain" />
 <circle cx="297.943903" cy="-108.635974" r="10.000000" class="w" />
 <text x="297.943903" y="-103.635974" class="aa">S</text>

 <line x1="319.806681" y1="-130.498752" x2="319.806681" y2="-152.361530" class="sidechain" />
 <circle cx="319.806681" cy="-152.361530" r="10.000000" class="n" />
 <text x="319.806681" y="-147.361530" class="aa">V</text>

 <line x1="341.669459" y1="-130.498752" x2="341.669459" y2="-108.635974" class="sidechain" />
 <circle cx="341.669459" cy="-108.635974" r="10.000000" class="s" />
 <text x="341.669459" y="-103.635974" class="aa">M</text>
 <text x="341.669459" y="-97.435974" class="resi">428</text>

 <line x1="363.532237" y1="-130.498752" x2="363.532237" y2="-152.361530" class="sidechain" />
 <circle cx="363.532237" cy="-152.361530" r="10.000000" class="b" />
 <text x="363.532237" y="-147.361530" class="aa">H</text>

 <line x1="385.395015" y1="-130.498752" x2="385.395015" y2="-108.635974" class="sidechain" />
 <circle cx="385.395015" cy="-108.635974" r="10.000000" class="a" />
 <text x="385.395015" y="-103.635974" class="aa">E</text>

 <line x1="407.257793" y1="-130.498752" x2="386.317049" y2="-136.780975" class="sidechain" />
 <circle cx="386.317049" cy="-136.780975" r="10.000000" class="n" />
 <text x="386.317049" y="-131.780975" class="aa">A</text>

 <line x1="407.257793" y1="-203.374678" x2="428.198536" y2="-209.656901" class="sidechain" />
 <circle cx="428.198536" cy="-209.656901" r="10.000000" class="n" />
 <text x="428.198536" y="-204.656901" class="aa">L</text>

 <line x1="385.395015" y1="-203.374678" x2="385.395015" y2="-181.511900" class="sidechain" />
 <circle cx="385.395015" cy="-181.511900" r="10.000000" class="b" />
 <text x="385.395015" y="-176.511900" class="aa">H</text>

 <line x1="363.532237" y1="-203.374678" x2="363.532237" y2="-225.237456" class="sidechain" />
 <circle cx="363.532237" cy="-225.237456" r="10.000000" class="w" />
 <text x="363.532237" y="-220.237456" class="aa">N</text>

 <line x1="341.669459" y1="-203.374678" x2="341.669459" y2="-181.511900" class="sidechain" />
 <circle cx="341.669459" cy="-181.511900" r="10.000000" class="b" />
 <text x="341.669459" y="-176.511900" class="aa">H</text>
 <text x="341.669459" y="-170.311900" class="resi">435</text>

 <line x1="319.806681" y1="-203.374678" x2="319.806681" y2="-225.237456" class="sidechain" />
 <circle cx="319.806681" cy="-225.237456" r="10.000000" class="n" />
 <text x="319.806681" y="-220.237456" class="aa">Y</text>

 <line x1="297.943903" y1="-203.374678" x2="297.943903" y2="-181.511900" class="sidechain" />
 <circle cx="297.943903" cy="-181.511900" r="10.000000" class="w" />
 <text x="297.943903" y="-176.511900" class="aa">T</text>

 <line x1="276.081125" y1="-203.374678" x2="276.081125" y2="-225.237456" class="sidechain" />
 <circle cx="276.081125" cy="-225.237456" r="10.000000" class="w" />
 <text x="276.081125" y="-220.237456" class="aa">Q</text>

 <line x1="254.218347" y1="-203.374678" x2="254.218347" y2="-181.511900" class="sidechain" />
 <circle cx="254.218347" cy="-181.511900" r="10.000000" class="b" />
 <text x="254.218347" y="-176.511900" class="aa">K</text>

 <line x1="232.355570" y1="-203.374678" x2="232.355570" y2="-225.237456" class="sidechain" />
 <circle cx="232.355570" cy="-225.237456" r="10.000000" class="w" />
 <text x="232.355570" y="-220.237456" class="aa">S</text>

 <line x1="210.492792" y1="-203.374678" x2="210.492792" y2="-181.511900" class="sidechain" />
 <circle cx="210.492792" cy="-181.511900" r="10.000000" class="n" />
 <text x="210.492792" y="-176.511900" class="aa">L</text>

 <line x1="188.630014" y1="-203.374678" x2="188.630014" y2="-225.237456" class="sidechain" />
 <circle cx="188.630014" cy="-225.237456" r="10.000000" class="w" />
 <text x="188.630014" y="-220.237456" class="aa">S</text>
 <text x="188.630014" y="-214.037456" class="resi">442</text>

 <line x1="166.767236" y1="-203.374678" x2="166.767236" y2="-181.511900" class="sidechain" />
 <circle cx="166.767236" cy="-181.511900" r="10.000000" class="n" />
 <text x="166.767236" y="-176.511900" class="aa">L</text>

 <line x1="144.904458" y1="-203.374678" x2="144.904458" y2="-225.237456" class="sidechain" />
 <circle cx="144.904458" cy="-225.237456" r="10.000000" class="n" />
 <text x="144.904458" y="-220.237456" class="aa">A</text>

 <line x1="123.041680" y1="-203.374678" x2="123.041680" y2="-181.511900" class="sidechain" />
 <circle cx="123.041680" cy="-181.511900" r="10.000000" class="p" />
 <text x="123.041680" y="-176.511900" class="aa">P</text>

 <line x1="101.178902" y1="-203.374678" x2="101.178902" y2="-216.492345" class="sidechain" />
 <circle cx="101.178902" cy="-216.492345" r="10.000000" class="g" />
 <text x="101.178902" y="-211.492345" class="aa">G</text>

</g>
</svg>
