<?xml version="1.0" standalone="no"?>
<svg viewBox="0 0 425 480" version="1.1" xmlns="http://www.w3.org/2000/svg">
<style>
 line {stroke: black; stroke-width: 0.2px;}
 .mainchain {stroke-width: 0.4px;}
 .sidechain {stroke-width: 0.2px;}

 circle {stroke: black; stroke-width: 0.2px;}
 .a {fill: red;}
 .b {fill: skyblue;}
 .w {fill: green;}
 .g {fill: pink;}
 .n {fill: white;}
 .s {fill: yellow;}
 .p {fill: purple;}
 .aa {font-family: sans-serif; font-size: 1.76px; text-anchor: middle;}
</style>
<g transform="scale(10) translate(-39.145000, -78.460999)">

 <line x1="48.301998" y1="88.600998" x2="51.264000" y2="86.231003" class="mainchain" />
 <line x1="48.908001" y1="92.290001" x2="48.301998" y2="88.600998" class="mainchain" />
 <line x1="46.263000" y1="95.008003" x2="48.908001" y2="92.290001" class="mainchain" />
 <line x1="46.942001" y1="98.680000" x2="46.263000" y2="95.008003" class="mainchain" />
 <line x1="44.145000" y1="101.247002" x2="46.942001" y2="98.680000" class="mainchain" />
 <line x1="45.014000" y1="104.911003" x2="44.145000" y2="101.247002" class="mainchain" />
 <line x1="47.844002" y1="106.912003" x2="45.014000" y2="104.911003" class="mainchain" />
 <line x1="51.539001" y1="106.219002" x2="47.844002" y2="106.912003" class="mainchain" />
 <line x1="53.740002" y1="109.208000" x2="51.539001" y2="106.219002" class="mainchain" />
 <line x1="57.465000" y1="108.927002" x2="53.740002" y2="109.208000" class="mainchain" />
 <line x1="59.601002" y1="111.717003" x2="57.465000" y2="108.927002" class="mainchain" />
 <line x1="62.661999" y1="109.638000" x2="59.601002" y2="111.717003" class="mainchain" />
 <line x1="63.004002" y1="105.971001" x2="62.661999" y2="109.638000" class="mainchain" />
 <line x1="61.660000" y1="102.528999" x2="63.004002" y2="105.971001" class="mainchain" />
 <line x1="58.361000" y1="100.931999" x2="61.660000" y2="102.528999" class="mainchain" />
 <line x1="57.534000" y1="97.353996" x2="58.361000" y2="100.931999" class="mainchain" />
 <line x1="60.870998" y1="96.188004" x2="57.534000" y2="97.353996" class="mainchain" />
 <line x1="61.382999" y1="92.419998" x2="60.870998" y2="96.188004" class="mainchain" />
 <line x1="64.835999" y1="90.894997" x2="61.382999" y2="92.419998" class="mainchain" />
 <line x1="64.741997" y1="87.153999" x2="64.835999" y2="90.894997" class="mainchain" />
 <line x1="66.657997" y1="83.901001" x2="64.741997" y2="87.153999" class="mainchain" />
 <line x1="70.128998" y1="85.213997" x2="66.657997" y2="83.901001" class="mainchain" />
 <line x1="73.500000" y1="83.460999" x2="70.128998" y2="85.213997" class="mainchain" />
 <line x1="76.703003" y1="85.359001" x2="73.500000" y2="83.460999" class="mainchain" />
 <line x1="75.106003" y1="88.656998" x2="76.703003" y2="85.359001" class="mainchain" />
 <line x1="76.098999" y1="92.280998" x2="75.106003" y2="88.656998" class="mainchain" />
 <line x1="74.635002" y1="95.667999" x2="76.098999" y2="92.280998" class="mainchain" />
 <line x1="74.485001" y1="99.349998" x2="74.635002" y2="95.667999" class="mainchain" />
 <line x1="71.924004" y1="102.121002" x2="74.485001" y2="99.349998" class="mainchain" />
 <line x1="72.968002" y1="105.757004" x2="71.924004" y2="102.121002" class="mainchain" />
 <line x1="71.875000" y1="108.774002" x2="72.968002" y2="105.757004" class="mainchain" />
 <line x1="68.373001" y1="110.247002" x2="71.875000" y2="108.774002" class="mainchain" />
 <line x1="67.473000" y1="113.938004" x2="68.373001" y2="110.247002" class="mainchain" />
 <line x1="64.147003" y1="115.566002" x2="67.473000" y2="113.938004" class="mainchain" />
 <line x1="63.876999" y1="119.324997" x2="64.147003" y2="115.566002" class="mainchain" />
 <line x1="60.771999" y1="121.482002" x2="63.876999" y2="119.324997" class="mainchain" />

 <circle cx="51.264000" cy="86.231003" r="1.200000" class="g" />
 <text x="51.264000" y="86.831003" class="aa">G</text>

 <line x1="46.515602" y1="88.173997" x2="48.301998" y2="88.600998" class="sidechain" />
 <circle cx="46.515602" cy="88.173997" r="1.200000" class="n" />
 <text x="46.515602" y="88.773997" class="aa">F</text>

 <line x1="50.751797" y1="92.609196" x2="48.908001" y2="92.290001" class="sidechain" />
 <circle cx="50.751797" cy="92.609196" r="1.200000" class="n" />
 <text x="50.751797" y="93.209196" class="aa">F</text>

 <line x1="44.402397" y1="94.645399" x2="46.263000" y2="95.008003" class="sidechain" />
 <circle cx="44.402397" cy="94.645399" r="1.200000" class="w" />
 <text x="44.402397" y="95.245399" class="aa">S</text>

 <line x1="48.757797" y1="99.125201" x2="46.942001" y2="98.680000" class="sidechain" />
 <circle cx="48.757797" cy="99.125201" r="1.200000" class="n" />
 <text x="48.757797" y="99.725201" class="aa">F</text>

 <line x1="42.302598" y1="100.642203" x2="44.145000" y2="101.247002" class="sidechain" />
 <circle cx="42.302598" cy="100.642203" r="1.200000" class="n" />
 <text x="42.302598" y="101.242203" class="aa">I</text>

 <circle cx="45.014000" cy="104.911003" r="1.200000" class="g" />
 <text x="45.014000" y="105.511003" class="aa">G</text>

 <line x1="47.512197" y1="109.025995" x2="47.844002" y2="106.912003" class="sidechain" />
 <circle cx="47.512197" cy="109.025995" r="1.200000" class="a" />
 <text x="47.512197" y="109.625995" class="aa">E</text>

 <line x1="52.155000" y1="104.263197" x2="51.539001" y2="106.219002" class="sidechain" />
 <circle cx="52.155000" cy="104.263197" r="1.200000" class="n" />
 <text x="52.155000" y="104.863197" class="aa">A</text>

 <line x1="53.086198" y1="111.121796" x2="53.740002" y2="109.208000" class="sidechain" />
 <circle cx="53.086198" cy="111.121796" r="1.200000" class="n" />
 <text x="53.086198" y="111.721796" class="aa">F</text>

 <line x1="58.030599" y1="106.896996" x2="57.465000" y2="108.927002" class="sidechain" />
 <circle cx="58.030599" cy="106.896996" r="1.200000" class="w" />
 <text x="58.030599" y="107.496996" class="aa">Q</text>

 <circle cx="59.601002" cy="111.717003" r="1.200000" class="g" />
 <text x="59.601002" y="112.317003" class="aa">G</text>

 <line x1="64.392399" y1="110.851796" x2="62.661999" y2="109.638000" class="sidechain" />
 <circle cx="64.392399" cy="110.851796" r="1.200000" class="n" />
 <text x="64.392399" y="111.451796" class="aa">A</text>

 <circle cx="63.004002" cy="105.971001" r="1.200000" class="g" />
 <text x="63.004002" y="106.571001" class="aa">G</text>

 <line x1="63.099200" y1="100.944205" x2="61.660000" y2="102.528999" class="sidechain" />
 <circle cx="63.099200" cy="100.944205" r="1.200000" class="a" />
 <text x="63.099200" y="101.544205" class="aa">D</text>

 <line x1="56.652998" y1="101.983398" x2="58.361000" y2="100.931999" class="sidechain" />
 <circle cx="56.652998" cy="101.983398" r="1.200000" class="s" />
 <text x="56.652998" y="102.583398" class="aa">M</text>

 <line x1="55.519402" y1="96.910205" x2="57.534000" y2="97.353996" class="sidechain" />
 <circle cx="55.519402" cy="96.910205" r="1.200000" class="n" />
 <text x="55.519402" y="97.510205" class="aa">W</text>

 <line x1="62.682602" y1="97.320601" x2="60.870998" y2="96.188004" class="sidechain" />
 <circle cx="62.682602" cy="97.320601" r="1.200000" class="b" />
 <text x="62.682602" y="97.920601" class="aa">R</text>

 <line x1="59.645598" y1="91.230000" x2="61.382999" y2="92.419998" class="sidechain" />
 <circle cx="59.645598" cy="91.230000" r="1.200000" class="n" />
 <text x="59.645598" y="91.830000" class="aa">A</text>

 <line x1="66.640601" y1="91.995401" x2="64.835999" y2="90.894997" class="sidechain" />
 <circle cx="66.640601" cy="91.995401" r="1.200000" class="n" />
 <text x="66.640601" y="92.595401" class="aa">Y</text>

 <line x1="62.672801" y1="86.599605" x2="64.741997" y2="87.153999" class="sidechain" />
 <circle cx="62.672801" cy="86.599605" r="1.200000" class="w" />
 <text x="62.672801" y="87.199605" class="aa">T</text>

 <line x1="65.244005" y1="82.758598" x2="66.657997" y2="83.901001" class="sidechain" />
 <circle cx="65.244005" cy="82.758598" r="1.200000" class="a" />
 <text x="65.244005" y="83.358598" class="aa">D</text>

 <line x1="70.435600" y1="87.311198" x2="70.128998" y2="85.213997" class="sidechain" />
 <circle cx="70.435600" cy="87.311198" r="1.200000" class="s" />
 <text x="70.435600" y="87.911198" class="aa">M</text>

 <line x1="73.395004" y1="81.397400" x2="73.500000" y2="83.460999" class="sidechain" />
 <circle cx="73.395004" cy="81.397400" r="1.200000" class="b" />
 <text x="73.395004" y="81.997400" class="aa">K</text>

 <line x1="77.853801" y1="84.185805" x2="76.703003" y2="85.359001" class="sidechain" />
 <circle cx="77.853801" cy="84.185805" r="1.200000" class="a" />
 <text x="77.853801" y="84.785805" class="aa">E</text>

 <line x1="72.971001" y1="88.638797" x2="75.106003" y2="88.656998" class="sidechain" />
 <circle cx="72.971001" cy="88.638797" r="1.200000" class="n" />
 <text x="72.971001" y="89.238797" class="aa">A</text>

 <circle cx="76.098999" cy="92.280998" r="1.200000" class="g" />
 <text x="76.098999" y="92.880998" class="aa">G</text>

 <line x1="72.562997" y1="95.351602" x2="74.635002" y2="95.667999" class="sidechain" />
 <circle cx="72.562997" cy="95.351602" r="1.200000" class="n" />
 <text x="72.562997" y="95.951602" class="aa">W</text>

 <line x1="76.264395" y1="100.381798" x2="74.485001" y2="99.349998" class="sidechain" />
 <circle cx="76.264395" cy="100.381798" r="1.200000" class="b" />
 <text x="76.264395" y="100.981798" class="aa">K</text>

 <line x1="70.097003" y1="101.636601" x2="71.924004" y2="102.121002" class="sidechain" />
 <circle cx="70.097003" cy="101.636601" r="1.200000" class="a" />
 <text x="70.097003" y="102.236601" class="aa">D</text>

 <circle cx="72.968002" cy="105.757004" r="1.200000" class="g" />
 <text x="72.968002" y="106.357004" class="aa">G</text>

 <line x1="73.083199" y1="110.518394" x2="71.875000" y2="108.774002" class="sidechain" />
 <circle cx="73.083199" cy="110.518394" r="1.200000" class="a" />
 <text x="73.083199" y="111.118394" class="aa">D</text>

 <line x1="66.923996" y1="108.897395" x2="68.373001" y2="110.247002" class="sidechain" />
 <circle cx="66.923996" cy="108.897395" r="1.200000" class="b" />
 <text x="66.923996" y="109.497395" class="aa">K</text>

 <line x1="68.703596" y1="115.172798" x2="67.473000" y2="113.938004" class="sidechain" />
 <circle cx="68.703596" cy="115.172798" r="1.200000" class="n" />
 <text x="68.703596" y="115.772798" class="aa">Y</text>

 <line x1="62.898200" y1="114.569194" x2="64.147003" y2="115.566002" class="sidechain" />
 <circle cx="62.898200" cy="114.569194" r="1.200000" class="n" />
 <text x="62.898200" y="115.169194" class="aa">F</text>

 <line x1="65.369402" y1="120.191602" x2="63.876999" y2="119.324997" class="sidechain" />
 <circle cx="65.369402" cy="120.191602" r="1.200000" class="b" />
 <text x="65.369402" y="120.791602" class="aa">H</text>

 <line x1="59.274000" y1="120.607002" x2="60.771999" y2="121.482002" class="sidechain" />
 <circle cx="59.274000" cy="120.607002" r="1.200000" class="n" />
 <text x="59.274000" y="121.207002" class="aa">A</text>

</g>
</svg>
